<?xml version="1.0" encoding="UTF-8"?>
<svg width="30px" height="30px" viewBox="0 0 30 30" version="1.1" xmlns="http://www.w3.org/2000/svg" xmlns:xlink="http://www.w3.org/1999/xlink">
    <title>facebook</title>
    <g id="home" stroke="none" stroke-width="1" fill="none" fill-rule="evenodd">
        <g id="home-5" transform="translate(-195.000000, -1678.000000)" fill-rule="nonzero">
            <g id="content5" transform="translate(0.000000, 150.000000)">
                <g id="footer" transform="translate(0.000000, 1010.000000)">
                    <g id="facebook" transform="translate(195.000000, 518.000000)">
                        <circle id="Oval" fill="#C5A559" cx="15" cy="15" r="15"></circle>
                        <path d="M19.8773684,4.60421053 L16.5544992,4.60421053 C14.5825976,4.60421053 12.3892869,5.43356537 12.3892869,8.29191851 C12.3989134,9.28787776 12.3892869,10.2417148 12.3892869,11.3151952 L10.1080645,11.3151952 L10.1080645,14.9452971 L12.4598812,14.9452971 L12.4598812,25.3957385 L16.7814601,25.3957385 L16.7814601,14.8763328 L19.633854,14.8763328 L19.8919355,11.3050085 L16.7069949,11.3050085 C16.7069949,11.3050085 16.7141256,9.71633277 16.7069949,9.25497453 C16.7069949,8.12541596 17.882343,8.19010187 17.953039,8.19010187 C18.512343,8.19010187 19.5998302,8.19173175 19.8789983,8.19010187 L19.8789983,4.60421053 L19.8773684,4.60421053 Z" id="Path" fill="#002C5A"></path>
                    </g>
                </g>
            </g>
        </g>
    </g>
</svg>