<?xml version="1.0" encoding="UTF-8"?>
<svg width="58px" height="64px" viewBox="0 0 58 64" version="1.1" xmlns="http://www.w3.org/2000/svg" xmlns:xlink="http://www.w3.org/1999/xlink">
    <title>insignia</title>
    <g id="home" stroke="none" stroke-width="1" fill="none" fill-rule="evenodd">
        <g id="home-3" transform="translate(-1151.000000, -477.000000)" fill="#002C5A" fill-rule="nonzero">
            <g id="content3" transform="translate(0.000000, 150.000000)">
                <g id="Group" transform="translate(915.000000, 257.000000)">
                    <g id="insignia" transform="translate(236.000000, 70.000000)">
                        <path d="M38.600652,0 C37.4807856,1.77045441 36.190172,3.68452281 35.0290908,5.45615438 C34.0776165,6.04002765 33.0755068,6.55327108 32.1252101,7.14067583 C31.5164079,7.66804523 30.9076057,8.19894612 30.3152894,8.74515014 C30.1539627,9.0394411 30.0880189,9.38670443 29.9584865,9.69747569 C29.9019633,9.90701085 29.7265058,10.2036561 29.8442625,10.4120141 C30.3647472,11.3372649 30.879344,12.2554527 31.404539,13.1783492 L31.4222025,13.2701679 L31.3303523,13.2536876 C30.4153826,12.6556884 29.5133661,12.0188428 28.5960413,11.4290837 C28.0673136,11.3902373 27.4832403,11.6633393 26.9498024,11.7304376 C23.3911944,14.844036 19.8102126,18.0506303 16.2551373,21.1818861 C16.0914555,21.346689 15.8571196,21.4950117 15.7452507,21.6998382 C15.7158115,22.2295619 15.5851016,22.7675258 15.5909894,23.2960723 C15.6463351,23.5644657 15.8335682,23.8140244 15.9678109,24.0494572 C17.1277146,25.7987226 18.4630757,27.4408662 19.7607548,29.0877184 C19.8596704,29.2077891 19.9291469,29.3690606 20.0940063,29.4031983 C20.2211835,28.7675298 20.0680998,27.7575233 20.685145,27.3725907 C21.0949384,26.9841266 21.2786389,26.340218 21.3704891,25.7998998 L21.4929561,25.8069628 C21.789703,26.9499889 22.105291,28.0365111 22.420879,29.1618797 C22.4550285,29.2831276 22.4974209,29.4102613 22.5645422,29.516206 C22.9496067,28.4084949 23.5266146,27.2266224 23.6314181,26.0553444 L23.7056048,26.0576987 C23.7774364,27.2207366 23.971735,28.5038451 24.007062,29.7045523 C24.0470993,29.8481662 24.0376788,30.0200322 24.1071552,30.1506973 C25.3424232,30.7122045 26.6047752,31.3243297 27.8529964,31.8375731 C27.5444738,30.8581728 27.5326981,29.5126745 28.2627898,28.7063173 C28.686714,28.2848927 29.1754043,27.9246805 29.6240574,27.5291535 C29.4780391,27.3125553 28.9351806,27.2136736 28.8810125,26.9711778 C29.5946183,26.6957215 30.4801488,26.3566983 31.176091,26.05299 C30.2528783,26.2731197 29.31789,26.5721193 28.3958549,26.7722371 C28.0943977,26.6298003 27.802361,26.4285053 27.5009038,26.2778283 L27.4667544,26.1695293 C28.8657042,25.9435138 30.3612145,25.7245613 31.6965757,25.2148494 C32.0156964,25.0688811 32.4926111,24.9087868 32.6621807,24.5827124 C32.6091902,24.4014292 32.4172468,24.3249135 32.2782938,24.2142601 C31.3974736,23.6586388 30.4306909,23.2242653 29.4415345,22.8993681 C29.0423392,22.7993092 28.6796486,22.6462779 28.2616122,22.6297976 C27.9260056,22.6309748 27.5538943,22.5603449 27.2677455,22.7722344 C27.021634,22.9546948 27.0263442,23.2030764 27.0145686,23.4820642 C26.8688446,23.5156134 26.7648507,23.4028264 26.6792379,23.2897083 L26.5988874,23.1818874 C26.1938043,22.5732937 25.9700665,21.7033697 26.2185332,20.9970714 C26.5894668,20.1141985 27.7764545,19.9305609 28.6172375,19.952927 C30.7274379,20.4049579 32.5114521,21.8410978 33.7926452,23.5303279 C33.9045141,23.6480443 33.9327757,23.8434535 34.1117659,23.8446307 C34.1047005,23.588009 33.8338601,23.358462 33.7113931,23.1395095 C32.7858253,21.8705269 31.5470246,20.5579892 30.0809535,19.9317381 L30.06329,19.8222618 C30.4094947,19.8187304 30.7133071,19.6963053 31.0324278,19.5797661 C31.7966689,19.334916 32.3524806,18.7039562 33.0837498,18.4390943 C33.8621217,18.3484527 34.6840636,18.4096652 35.4483047,18.5779997 C36.4539471,18.8899481 37.5844115,19.4620497 37.8646725,20.570938 C37.8670277,20.6439222 37.9105976,20.6804143 37.9953825,20.6792371 C38.2485594,19.9317381 39.0245762,19.3643451 39.8053032,19.3243215 C40.7179178,19.0853573 41.5692989,18.7581057 42.5113526,18.6886531 C42.6962306,18.6874759 42.9364544,18.6815901 42.9093703,18.9382118 C42.7527539,19.5044276 42.3924183,20.0117852 42.0780079,20.5097255 C41.5681213,21.2466301 41.0252628,21.9611685 40.4435446,22.6427464 C40.0243307,23.1053718 39.6569298,23.5703515 39.1282021,23.9164377 L39.0999405,23.9964848 C40.080854,25.4067271 40.3752457,27.1489296 40.1091156,28.826388 C39.8759573,30.5838936 39.223585,32.2884269 38.4122413,33.8552319 L38.6077174,33.8528776 C39.00338,33.5915472 39.3707809,33.2937248 39.7381819,32.9947252 C42.2075403,30.8393382 44.4708244,28.4037862 46.3266703,25.6974866 C47.4076769,24.0741776 48.3273569,22.3943648 48.6653187,20.4496902 C48.7041784,19.8834744 48.8419537,19.3172586 48.9467572,18.7592829 C49.0386075,18.4390943 49.1316353,18.1436262 49.4413354,17.9705831 C49.9465117,17.7622251 50.5152767,17.7280874 51.0487146,17.8352093 C52.2922256,18.1094885 53.4050265,18.8581647 54.2681833,19.7763525 C56.09459,21.7481019 56.9883635,24.4697047 57.4805865,27.0582879 C57.9739872,29.7881309 58.058772,32.5309226 57.9680993,35.299612 C57.8126605,38.5862534 57.4935398,41.7339895 56.8823824,44.9676586 C56.6833736,45.7257521 56.5220469,46.587436 56.1452254,47.2807855 C56.0227584,47.5032695 55.8944036,47.6551236 55.640049,47.7281078 C55.5058064,48.6003862 55.3868721,49.4361725 54.9853217,50.2378211 C54.6591356,50.9747256 54.0244269,51.5762563 53.4191574,52.0942084 C53.1718682,52.2766688 52.7667851,52.5862629 52.4476644,52.4320544 C52.1579829,52.1754327 52.2109734,51.8022718 52.2321696,51.4526541 L52.1073475,51.4844376 C51.730526,51.9035079 51.3266205,52.3626018 50.756678,52.5015071 C50.3303986,52.6168692 49.8570166,52.2543027 49.7686991,51.8434725 C49.6909797,50.9653083 49.7286618,50.0706638 49.7463253,49.1901452 C49.7722318,48.8240473 49.7357272,48.4708981 49.8275775,48.1130403 C49.8240448,46.7804909 49.9924369,45.4608902 50.0242312,44.1271636 C50.1078385,43.7445853 50.0713339,43.3419953 50.1054833,42.9511769 C50.1113712,42.56389 50.1667168,42.1377567 50.0937076,41.7587099 C50.0430723,41.6751313 49.9830163,41.672777 49.9135399,41.7528241 C49.5932416,42.1153906 49.3895225,42.6156852 49.178738,43.0477043 C49.1139718,43.2042671 49.012701,43.3643614 49.0174112,43.5374045 C49.0232991,44.640407 48.9667759,45.5562405 48.898477,46.659243 C48.8054492,47.1324629 48.759524,47.6963243 48.4945714,48.1071545 C48.3285345,48.3932053 48.005881,48.3461188 47.872816,48.6557129 C47.532499,49.5950896 47.1721635,50.5262262 46.7812112,51.4455911 C46.6281274,51.7622482 46.4832867,52.0588935 46.2195116,52.3002121 C45.9592693,52.4132198 45.7461296,52.3461215 45.5494759,52.1577753 C44.9100569,51.566839 44.376619,50.8169857 43.9962648,50.036526 C43.78077,49.3525938 43.7607514,48.5909688 43.6995179,47.8799619 C43.552322,47.3325807 43.772527,46.6415855 43.2143602,46.2919679 C42.6585485,46.8063885 42.2358019,47.3773129 41.5057102,47.69397 C41.3691124,47.7575368 41.2301595,47.5738993 41.1642158,47.4773719 C40.9946461,47.090085 41.0476366,46.6816091 40.9216369,46.2754876 C40.8933753,46.429696 40.9310575,46.5756644 40.8498053,46.7192783 C40.7167402,47.0453527 40.6072265,47.5997969 40.2586666,47.7540054 C39.8653592,47.9282256 39.5521263,47.2654824 39.1941459,47.5185726 C38.6430444,47.8493556 38.1826157,48.3590676 37.7492709,48.8275788 C37.8846912,49.9435301 38.0731019,51.1195168 38.2273632,52.2366452 C38.2202978,52.3767277 38.3133256,52.4979756 38.442858,52.536822 C39.0339967,52.738117 39.6015841,52.9853214 40.107938,53.3549509 C40.8710015,53.8575998 41.5080654,54.7098665 41.4374113,55.6645463 C41.3832432,56.5038642 40.905151,57.0512453 40.3646476,57.6398273 C40.1644612,57.8128703 40.2268723,57.9929764 40.195078,58.2295863 C40.5836751,58.1471849 40.9181042,58.004748 41.3326079,58.0412401 C42.9446973,57.9258781 44.4154787,59.3573093 44.376619,60.9617836 C44.4390301,62.2531323 43.552322,63.4597253 42.3323624,63.852898 C41.4762711,64.1295315 40.4776941,64.0165238 39.7299389,63.5044575 C39.6498644,63.3855639 39.8206116,63.2501901 39.8724246,63.1477768 C40.1750593,62.7169349 40.3587598,62.1872112 40.431769,61.6692591 C40.5707219,60.4179339 39.9289478,59.1454198 38.8608944,58.4873852 C38.1590643,58.0235827 37.3960008,57.8740829 36.5646384,57.9870906 L36.5587505,58.0541889 C37.847009,57.9694331 39.09052,59.0324121 39.3849118,60.2554853 C39.5450609,60.9264687 39.4979582,61.6304127 39.2094542,62.2590182 C38.8149692,63.1242336 38.0024479,63.7504847 37.0757025,63.9506026 C36.3409006,64.0659646 35.6696873,63.9765002 35.01496,63.6221739 C34.9866984,63.5268236 35.0008292,63.4514851 35.0597075,63.3949813 C35.9075559,62.4108723 36.024135,60.9241144 35.436529,59.7869741 C34.9761002,58.9606051 34.22599,58.3143421 33.3051324,58.0612519 C32.8470588,57.87526 32.2076398,58.0141654 31.7377905,57.9929764 L31.7366129,58.0494803 C32.1687801,58.0377086 32.6621807,58.0106339 33.0707966,58.1671967 C34.0199157,58.4791451 34.7712036,59.2737307 35.0267356,60.239005 C35.1951277,60.9323545 35.137427,61.711637 34.813596,62.3520141 C34.3072421,63.3396546 33.2698054,64.0200552 32.1475839,63.9929805 C31.5552676,64.0165238 30.8663908,63.8270004 30.4153826,63.4385363 C30.607326,63.1689658 30.7863162,62.8935095 30.9205589,62.588624 C31.4092493,61.4667869 31.1972872,60.1083398 30.3953639,59.183089 C30.0727105,58.8005108 29.5910856,58.3732003 29.0953298,58.2637241 C29.0435168,58.3649602 29.0258533,58.4814994 29.0446944,58.6121646 C29.9879257,59.3643723 30.4342237,60.590977 30.1151029,61.7681408 C29.8030476,63.0229975 28.6207702,63.9906262 27.3195585,63.9918033 C26.7755224,64.0212324 26.1337483,63.8823271 25.6956933,63.5538984 C26.3457104,62.7675529 26.6930927,61.755192 26.4858409,60.7404768 C26.3810374,59.9965093 25.9418049,59.2725535 25.3695072,58.7899163 C25.3070962,58.6109874 25.4696004,58.6051016 25.5791142,58.51446 C26.3339347,57.9847363 27.380792,57.9105749 28.2392384,58.1919171 C27.8694823,57.6751422 27.3089604,57.141887 27.214755,56.4897382 C27.0086807,55.5574244 27.4326049,54.785205 28.0578931,54.131879 C28.055538,53.7634267 27.951912,53.3372934 27.7046229,53.046534 C26.9132978,51.990618 25.8758611,50.9982689 24.6700323,50.4391161 C24.0365012,50.2048605 23.4865773,49.8575971 23.1026904,49.2913813 C22.5551217,48.5015044 22.3561128,47.2513564 21.6460398,46.5050345 C21.2645081,46.2378183 20.8688455,45.9894368 20.4849586,45.7245749 L20.3813327,45.7598898 C19.694811,46.3261056 19.0318407,46.8664238 18.2558239,47.3149232 C18.0214881,47.4432341 17.7000122,47.6162772 17.4268166,47.5621277 C17.1948359,47.4903207 17.2113218,47.2725453 17.2101443,47.0724275 C17.2172097,46.6215737 17.4350596,46.293145 17.6270031,45.9105668 C16.8922011,46.2849049 16.2103897,46.7616562 15.4119992,47.0335811 C15.2341865,47.083022 15.0811028,47.0630102 14.909178,47.0100378 L14.909178,46.8028134 C14.9099631,46.6687911 14.9217387,46.541919 15.0010282,46.4155701 C15.2294763,45.8316968 15.5992324,45.3172762 15.8571196,44.7581234 C14.8667856,45.2172173 13.8517227,45.6927915 12.8637438,46.1589484 L12.8696317,46.2413498 C13.4313312,47.0017977 14.049554,47.8105092 14.3851606,48.7004451 C14.4322633,48.9158661 14.5158706,49.210157 14.3074412,49.3655426 C13.9048038,49.7338138 13.728531,50.2150579 13.5844835,50.7162816 L13.4643781,51.148626 C13.3835317,51.4372256 13.2950957,51.7236735 13.1628459,51.990618 C13.0439116,52.206039 12.9002484,52.4061568 12.6223426,52.3414128 C12.5717072,52.284909 12.5458007,52.2107476 12.5458007,52.1212832 C12.5611091,51.731642 12.4692588,51.3608354 12.2808481,51.020635 C12.0724187,50.7086866 11.7744942,50.5097459 11.6378964,50.1460023 C11.1939536,49.0335824 10.9890569,47.7952061 10.7959359,46.6239281 C10.4014509,46.7181012 10.0210967,46.9064474 9.6395649,47.0477071 C8.99779079,47.3361122 8.23001699,47.708096 7.87910197,48.3496503 C7.5694018,49.0959721 7.41985077,50.0447662 6.92998283,50.6945606 C6.78160936,50.9135131 6.56022673,50.9358792 6.35061978,51.0677216 C6.02090097,51.4538313 6.05034015,51.868193 5.97026558,52.3437672 C5.36617362,51.8905591 4.73499761,51.1866151 4.85628703,50.3673091 C4.95284754,49.4785504 5.34497741,48.4979729 5.91609749,47.8046234 C6.04680745,47.6056827 6.52960999,47.4055649 6.41656354,47.140703 C6.1739847,47.0559472 5.87134994,47.2030927 5.63819164,47.2854941 C4.66434358,47.6563008 3.8459344,48.2319339 2.93567497,48.714571 C2.66483452,48.8358189 2.41636784,48.9535353 2.11255551,48.8770197 C1.80521048,48.7345828 1.78990211,48.3543589 1.48962248,48.1718985 C1.1657915,47.9223398 0.565232244,47.9788436 0.394485004,48.3861423 C0.283793689,48.5015044 0.333251511,48.9040944 0.123644553,48.8299331 C0.0494578214,48.6003862 0.0494578214,48.3461188 0,48.1083317 L0,47.2925571 C0.0906726725,46.8063885 0.222560196,46.364952 0.615867633,46.0365233 C1.03979182,45.6869057 1.67803323,45.5644806 2.19145251,45.4149808 C2.94274037,45.3431738 3.6198415,45.4573587 4.35699855,45.5668349 C5.43211738,45.394969 6.47661947,45.006505 7.51405615,44.6804306 C7.52465425,44.5886118 7.49285994,44.5226906 7.42102834,44.4850214 C6.78867477,44.0541794 6.15632119,43.6033257 5.47922007,43.246645 C5.22604312,43.103031 4.94813727,43.0771334 4.67729682,42.9912005 C4.42294231,42.8004999 4.51243742,42.3378745 4.5560074,42.068304 C4.67023142,41.7339895 4.84804406,41.4173324 4.46886743,41.1760138 C3.81296251,40.9323409 3.2500854,41.1477619 2.6153767,41.2784271 C2.73548855,41.0783092 2.97100198,40.9358724 3.164123,40.811093 C3.64103771,40.5179793 4.25690534,40.2024993 4.82802542,40.2354599 C5.33202417,40.3519992 5.82777995,40.3472905 6.34119924,40.3472905 C6.87463717,40.4379321 7.51052345,40.364948 7.89558791,40.8263962 C8.13463405,41.2431122 8.00039139,41.7481155 8.13816675,42.1919062 C8.1652508,42.6651261 8.29007292,43.2643025 8.70810926,43.5515305 C9.03076267,43.7846089 9.39698606,43.7292822 9.77262999,43.7893176 C10.6616932,43.8105065 11.6143451,43.7622428 12.4763242,43.5397588 C13.4160228,43.0065036 14.356899,42.4473508 15.2318314,41.8128595 C15.5450643,41.5691866 15.8453439,41.334931 16.0690817,41.0053251 C16.2127449,40.7133885 15.9631006,40.3013811 15.8524093,40.0282791 C15.4685224,39.2654769 15.0257572,38.5309267 14.5606181,37.8140339 C14.4934968,37.6974947 14.3757401,37.5750697 14.3745625,37.4361643 C15.0481309,37.563298 15.6863723,37.6774829 16.364651,37.7834277 C16.9157525,37.8705378 17.4668539,37.8399315 18.0167778,37.9188015 C18.5219541,37.8540575 19.2426252,37.8917267 19.5864748,37.4526446 C19.7407361,37.1783654 19.6006056,37.0323971 19.3780454,36.880543 C18.4195058,36.2401659 17.2796207,35.7316311 16.3670062,34.9488171 C16.0007828,34.6274514 15.6851948,34.2860739 15.4932513,33.8328658 C15.4626346,33.6633542 15.3460554,33.287839 15.5909894,33.2325123 C16.2374738,33.1089101 16.9369487,33.5044371 17.5469285,33.3219767 C17.7612457,33.1995517 17.7683111,33.1147959 17.7153206,32.8852489 C17.2077891,31.965884 16.1691749,31.2854833 15.7087461,30.3519924 C15.749961,30.2248587 15.8535869,30.1730635 16.0172687,30.1966067 C16.8286125,30.3178546 17.5834331,30.5944881 18.3370761,30.9111452 L18.3088144,30.7639997 C16.9475468,29.2419269 15.6286716,27.6280352 14.1143202,26.254285 C13.7009941,25.837569 13.2323224,26.0247381 12.7200806,25.8540493 C12.2443435,25.7904825 11.7945128,25.6091993 11.3187757,25.5668214 C9.74907865,26.9382172 7.94740087,28.5320971 6.3965449,29.9246819 C6.38476923,30.0706502 6.56611457,30.1966067 6.60732942,30.3413979 C7.04302928,31.1960188 6.52489972,32.3155016 5.59462165,32.5497572 C5.19660395,32.6863082 4.86688514,32.5556431 4.4806431,32.4744188 C4.35346585,32.5285683 4.28869965,32.6804224 4.18389617,32.771064 C3.95073787,32.9959023 3.66223392,33.1171502 3.35371132,33.2030832 C2.75550719,33.2901933 2.09253687,32.9817764 1.78519184,32.4567613 C1.37186576,31.7987267 1.51081869,30.8546413 2.12197605,30.363764 C2.2279571,30.2707681 2.38810623,30.2283902 2.4681808,30.1130281 C2.41872298,29.8787725 2.36219975,29.6574657 2.37986326,29.4137928 C2.36808759,28.5591718 3.15116976,27.8281531 4.0037284,27.8952514 C4.46180203,27.8940743 4.74912842,28.1000779 5.07413696,28.3920146 C5.15656666,28.3543453 5.23193096,28.3025501 5.30022986,28.2366289 C6.57906781,27.0912485 7.87674684,25.9611713 9.15322966,24.8157908 L9.15558479,24.7392752 C8.76698762,24.3590513 8.06162488,23.9588156 7.91678412,23.4126115 C7.94504573,22.6015457 8.04160624,21.7539877 8.07928839,20.9358588 C8.09459676,20.6027215 8.11932568,20.2660526 8.42313801,20.0624033 C8.93773486,19.701014 9.58421924,19.5044276 10.1812458,19.327853 C10.368479,19.0406251 10.4956562,18.7451569 10.7723845,18.5250273 C11.1021033,18.2260277 11.6261207,18.3025433 12.0288487,18.3614015 C12.5140064,18.3684645 12.9308652,18.4732321 13.4077799,18.3967164 C13.6244522,18.3614015 13.7893116,18.2566339 14.0177597,18.3084291 C14.6030105,18.4555746 14.9339069,18.860519 15.3460554,19.256046 L15.4214197,19.2607547 C18.7598227,16.3119593 22.1476834,13.299597 25.4919742,10.3425615 L25.4719556,10.2307309 C24.7112472,9.3031258 23.5748949,8.75692178 22.3737763,8.74397298 C21.1926765,8.70630374 20.097539,9.06298438 19.0400837,9.55503886 C18.8999532,9.20659837 19.1178031,8.61801645 19.1225134,8.22484373 C19.3274101,6.85344786 19.7360259,5.4620402 20.4095943,4.24367563 C21.1208449,2.96174421 22.157104,1.87875348 23.4571381,1.18658115 C24.812518,0.442613603 26.3775047,0.175397412 27.9083421,0.178928903 C28.292229,0.213066654 28.7314615,0.218952474 29.0988625,0.314302744 C29.0340963,0.540318201 28.8562836,0.721601432 28.7738539,0.946439725 C28.3605279,1.92466287 28.3781914,3.06533463 28.4735743,4.10594746 C28.607817,5.08652494 28.7856296,6.100063 29.1012176,7.03826258 L29.1989557,7.04061691 C29.7736085,6.56151122 30.3282426,6.05062212 30.8887646,5.55385898 C31.5458471,4.67687192 32.1628923,3.76810144 32.8140869,2.88640573 C34.5192042,2.00471001 36.2584709,1.14538041 37.9730087,0.277810665 C38.17084,0.181283231 38.3792694,0.0223661129 38.600652,0 Z M37.961233,59.3631951 C38.2897743,59.8340606 38.5370634,60.3496584 38.7007452,60.9017482 L38.8055487,60.9194057 C39.0057351,60.2307649 38.5829885,59.6092224 37.961233,59.3631951 Z M42.080363,59.1195222 C42.1027368,59.2855023 42.2122505,59.3843841 42.2935027,59.5374154 C42.4972218,59.8564268 42.632642,60.2189932 42.7704174,60.5733195 L42.8575574,60.5933313 C43.0977811,59.9553085 42.6444177,59.3667266 42.080363,59.1195222 Z M28.4040978,59.1171679 C28.425294,59.2560732 28.5053686,59.3561321 28.5736675,59.4750257 C28.7950501,59.8234662 28.9410685,60.1989814 29.1094606,60.5733195 L29.1942454,60.5921542 C29.3873664,59.9247023 28.985816,59.3949785 28.4040978,59.1171679 Z M33.4876553,59.0065145 C33.7561407,59.5162264 34.0693735,59.9953321 34.2071489,60.569788 L34.3296159,60.5615479 C34.3861391,60.1930956 34.3955596,59.8528953 34.1435603,59.5515413 C33.96457,59.3467148 33.7396547,59.1148135 33.4876553,59.0065145 Z M32.9707033,52.6592471 C31.5529125,52.8699594 30.0385611,53.3796713 28.9657974,54.3649575 C28.3252008,54.921756 27.7623237,55.8658414 27.8930337,56.7381198 C27.9636877,56.9417691 28.0060801,57.5068077 28.2710327,57.5480085 C28.5077238,56.1777898 29.511011,55.1972123 30.7038865,54.5744926 C32.6068351,53.6174584 35.0008292,53.5291711 36.9485253,54.4002724 C37.9282612,54.8487718 38.9127073,55.662192 39.2424261,56.7204623 C39.318968,56.9005684 39.2777531,57.0983319 39.3590053,57.2725521 C39.4190612,57.250186 39.4696966,57.206631 39.5085563,57.1407098 C39.9560318,56.4038052 40.0231532,55.4738458 39.5650795,54.7228153 C38.9645203,53.7198717 37.7092337,53.1065693 36.6093859,52.8405303 C36.1595553,52.7216367 35.6932387,52.6251093 35.2269221,52.6239321 C34.4320642,52.465015 33.7478977,52.608629 32.9707033,52.6592471 Z M56.3501221,28.3143218 C56.3854491,28.6309788 56.4254863,29.0288602 56.2735802,29.3160882 C56.2747578,30.1024336 56.1228516,30.8640586 56.09459,31.6515812 C55.7554506,34.9076164 55.5128718,37.649231 55.0442001,40.9488212 C54.8934715,42.1000874 54.6791542,43.346704 54.4389305,44.4838442 C54.3129308,44.8687768 54.2505198,45.4573587 53.9361093,45.7375237 C53.6311194,45.7104489 53.6534932,45.1713079 53.5121852,44.9676586 C53.2919801,45.76813 53.0505788,46.5839045 52.6820003,47.3302264 C52.5854398,47.5126868 52.3946739,47.85171 52.1568053,47.8328753 C51.825909,47.7316392 51.9271797,47.1089196 51.6740028,47.0512385 C51.589218,47.4491199 51.738769,47.7540054 51.7258158,48.1283435 C51.7505447,48.6863191 51.8200211,49.2690152 52.0225627,49.7928531 L52.1674034,49.9600104 C52.3569918,49.9458844 52.4735709,49.712806 52.5595333,49.5656605 C53.0399807,48.4167486 53.3273071,47.1701321 53.5522224,45.9494132 L53.6111008,45.9600077 C53.7394556,46.3131568 53.9160907,46.7687192 54.2246133,47.0029748 C54.5284256,47.1642463 54.6968177,46.9076246 54.8334155,46.6780776 C55.1537138,46.0306375 55.3009097,45.3031502 55.4257318,44.5992063 C56.00745,41.2972617 56.0934124,37.628042 56.2947764,34.2542905 C56.331281,32.842871 56.3571875,31.4079083 56.3630753,29.9964889 C56.4678788,29.6939578 56.401935,29.3878952 56.4195985,29.0582893 C56.4078228,28.7934274 56.4667012,28.5627033 56.3501221,28.3143218 Z M35.2104361,33.9741255 C33.9904765,34.0529955 32.8647223,34.5791877 32.1369858,35.5821313 L32.0392477,35.5550565 C31.4139595,34.6498175 30.2811399,34.0965505 29.203666,34.0012003 C28.9799282,33.9376334 28.9022088,33.9941373 28.7738539,34.1683575 C28.0732015,35.0041438 27.6987351,36.1012605 27.8435759,37.1936686 L27.8341553,37.3431684 C27.3525304,37.3514085 26.7931859,37.2725386 26.2785891,37.4385187 C25.6262169,37.6162704 24.9161439,37.9658881 24.4651356,38.4756 C24.5193037,39.5432876 24.9573587,40.6062665 25.7710576,41.3219822 C25.8581976,41.4208639 26.0595616,41.5032654 26.0430757,41.6504109 C25.0527417,42.3778981 24.5404999,43.5103297 24.4592478,44.7180998 C25.3424232,45.6068585 26.5977098,45.9988541 27.8353329,45.8458228 C27.8306226,46.3449402 27.7764545,46.8134515 27.9036318,47.3208091 C28.0955752,47.9894381 28.4394249,48.7463545 28.9681525,49.2125114 C30.1362992,49.1724878 31.3539036,48.5980318 32.0380701,47.6327575 L32.1369858,47.6139229 C32.8423485,48.6121578 34.0128503,49.1395272 35.2116137,49.2195743 C36.0830134,48.4167486 36.5457973,47.0359354 36.3844706,45.8611259 C36.8507872,45.8528858 37.3041506,45.8987952 37.7810653,45.8010906 C38.513512,45.596264 39.1941459,45.2666582 39.7417146,44.7286943 C39.6522195,43.5503533 39.1870805,42.4261618 38.2214754,41.7033832 C38.048373,41.5668322 38.249737,41.4738363 38.3451199,41.3820175 C39.2188748,40.6615932 39.6639952,39.5786025 39.7393595,38.4661827 C39.1658843,37.8846638 38.3651386,37.505617 37.566748,37.3608258 C37.1734406,37.290196 36.7707126,37.3667117 36.3880033,37.3266881 C36.5210684,36.2401659 36.1854617,35.1501122 35.5166036,34.2896054 C35.4176879,34.1707118 35.3517442,34.0471096 35.2104361,33.9741255 Z M52.7220376,21.6044879 C52.6454957,21.626854 52.7090843,21.8693498 52.7220376,21.9234993 C52.9281118,22.6309748 52.9799248,23.4891272 53.1247656,24.2319176 C53.3414379,25.4326247 53.4285779,26.5026666 53.6075681,27.6645273 C53.6617362,28.7404551 53.8407264,29.731627 53.7535864,30.8275666 C53.7100164,31.0406332 53.7394556,31.2878376 53.4721479,31.333747 C53.2825596,31.2148535 53.1777561,31.0371017 53.0658872,30.8499327 C52.3051788,29.4020211 51.7917595,27.805787 51.2618543,26.2637024 C51.3902091,27.6951336 51.651629,29.1736514 51.6728252,30.5921338 C51.7811614,31.4020225 51.7317036,32.2766552 51.5998161,33.0818353 C51.5362274,33.3078508 51.406695,33.6786574 51.1099481,33.6480511 C50.7507901,33.5491693 50.4717067,33.1348077 50.2620998,32.8452254 C49.5849986,31.8340416 48.9644207,30.4555828 48.4769079,29.3761235 C48.4227398,29.3973125 48.425095,29.465588 48.4827958,29.5785957 C48.8631499,31.0771253 49.2234855,33.065355 49.4907933,34.609794 C49.5532043,35.4644149 49.8004934,36.4732443 49.6050173,37.3172708 C49.4801951,37.5244516 49.3459525,37.4502903 49.1893361,37.3337511 C48.8007389,36.8982005 48.5122349,36.3390476 48.2402169,35.8234499 C47.6655641,34.6874868 47.1509673,33.4973741 46.6540339,32.324919 C46.629305,32.2472261 46.5904453,32.1860136 46.5374548,32.1389271 C46.909566,33.8575863 47.2628362,35.558588 47.5195458,37.2996133 C47.636125,38.0824273 47.7373957,38.9264537 47.6161063,39.7139764 C47.5301439,39.8210983 47.434761,39.8575903 47.3311351,39.8269841 C47.0355657,39.6115631 46.8730614,39.3219808 46.6799404,39.0206269 C45.8532882,37.5833098 45.200916,36.0176819 44.5485438,34.4967862 C44.5544317,35.2748915 44.8028983,36.032985 44.8346926,36.8134447 C44.9712904,37.5220973 45.0172156,38.2590019 45.130262,38.9653002 C45.1773647,40.1612986 45.4093454,41.5244543 45.1526358,42.700441 C45.1396825,42.8311062 45.0266361,42.9370509 44.9336083,43.0206296 C44.6415716,43.0712476 44.4025255,42.7039725 44.2517969,42.5038546 C43.5511444,41.4338127 43.0495008,40.1860191 42.5466796,39.0159182 C42.4301005,38.8169775 42.4171472,38.5874306 42.3158765,38.3849584 C42.3276521,38.8028515 42.4866237,39.1713038 42.5772964,39.575071 C42.8975946,40.7475262 43.2025845,41.9293987 43.5334809,43.0983224 C43.7360225,43.4302826 43.9762462,43.7657743 44.2871239,44.0035614 C44.5297027,44.16601 44.9465615,44.1789588 45.1149536,43.8987938 C45.4788219,43.390259 45.6095318,42.6816064 45.6672326,42.0706584 C45.7791015,41.5550606 45.7861669,41.0135652 45.8344472,40.4885502 L45.9239423,40.4979675 C46.3113619,40.8864315 46.7776785,41.241935 47.3346678,41.3231593 C47.7585919,41.3514112 48.0871332,41.0618289 48.2731888,40.7075026 C48.6747392,39.8964367 48.6947578,39.0877252 48.73244,38.2060295 C48.9302713,38.1636516 49.2435041,38.2519389 49.4472233,38.1177422 C49.9194277,37.8999669 50.1714271,37.311385 50.2515016,36.829925 C50.4775945,35.9152687 50.3610154,34.8499354 50.3374641,33.9235074 L50.5070337,33.9446964 C50.8732571,34.250759 51.510321,34.6192113 51.9919459,34.4037903 C52.2568985,34.2283929 52.3511039,33.9529365 52.4040944,33.6539369 C52.519496,32.9029064 52.3534591,32.1754191 52.2215715,31.4549949 C52.3558142,31.484424 52.378188,31.599786 52.4771036,31.6916048 C52.7938692,32.0270965 53.229569,32.4343952 53.6947081,32.5203281 C54.2305011,32.5450486 54.3388373,31.9541123 54.4318651,31.5515223 C54.5814162,29.7692963 54.1398285,27.870531 53.8183526,26.1153797 C53.5121852,24.7840074 53.2354569,23.4173202 52.8445046,22.108314 C52.7797384,21.9023103 52.870411,21.7339759 52.7220376,21.6044879 Z M26.2903648,33.2383981 C25.1292835,33.4632364 23.8963707,33.7057321 22.8188967,34.2119126 C22.5150844,34.3861328 22.04288,34.6180341 22.175945,35.0488761 C22.2042067,35.2772459 22.6587476,35.3867221 22.5574768,35.5844856 C22.0205062,35.8034381 21.3928629,36.0788944 21.000733,36.5179765 C20.8111447,36.743992 20.8523595,36.8993776 21.0784524,37.0665349 C21.6660585,37.4173297 22.4055706,37.5609437 23.0791391,37.4008494 C23.3334936,37.3408141 23.6573246,37.3572944 23.8881277,37.2348693 C23.324073,37.088901 22.6764111,36.9876649 22.1947861,36.6557047 C22.0075529,36.5014962 22.0475902,36.3449335 22.2124496,36.1954336 C22.5091966,35.98943 22.8907283,35.8775994 23.2357555,35.7798948 C23.2875685,35.5903714 23.1733444,35.3996709 23.245176,35.1971987 C23.3311384,34.8993763 23.5584089,34.6757151 23.7868569,34.4779516 C24.5228364,33.8893697 25.4330959,33.5880157 26.2903648,33.2383981 Z M38.4039983,27.4208544 C38.4616991,27.8399247 38.5794558,28.4873648 38.2862416,28.840514 C37.9577003,29.2419269 37.4325054,29.1218562 36.9991607,28.9994311 C37.1004314,29.314911 37.365384,29.7951939 37.2028798,30.1130281 C37.0639268,30.4226222 36.6529559,30.3355121 36.3856482,30.3001972 C36.1995925,30.306083 36.0747704,30.1342171 35.9028456,30.2083784 C36.0582845,30.6792439 36.2372747,31.2913691 36.0335556,31.7692976 C35.7273881,32.3308048 35.0455767,32.2790096 34.5038958,32.1954309 C33.9669252,32.1895451 33.5265151,31.8469904 33.0048528,31.82227 C33.7914677,32.2472261 34.6028115,32.8758316 35.5613511,32.9923708 C35.9440605,33.0382802 36.269069,32.8911348 36.4315733,32.5344541 C36.6223392,32.0023761 36.4833862,31.4785382 36.3962463,30.9464601 C36.7871986,31.0088498 37.049796,31.3384557 37.5137575,31.2442825 C37.7881307,31.0971371 37.7528036,30.8569956 37.7280747,30.5886023 C37.7045234,30.2389846 37.4419259,29.8552292 37.4289727,29.5362178 C37.9270836,29.3243283 38.5170447,29.0029626 38.7031004,28.4567586 C38.7819974,28.1683534 38.7019228,27.5456338 38.4039983,27.4208544 Z M40.5930957,20.0341513 C40.0890969,20.1989543 39.757023,20.937036 39.5686122,21.3961299 C39.1823702,21.7304444 38.6395117,21.9517512 38.2968397,22.3225578 C38.7348947,22.1671722 39.1140713,21.9611685 39.563902,21.8964245 C39.6392663,21.8758242 39.7152193,21.8603003 39.79143,21.8472228 L40.2491357,21.7770711 L40.475339,21.7245586 C40.3246104,21.4985431 40.1503304,21.3561063 40.1880126,21.0559295 C40.1503304,20.6180246 40.4223484,20.3861233 40.5930957,20.0341513 Z M28.0885098,20.8628747 C27.8329778,20.9900084 27.5868662,21.1689373 27.3454649,21.3231457 L27.3266239,21.4079015 C27.5091468,21.5515155 27.8859683,21.6292083 28.1144163,21.6233225 C28.1002855,21.3702323 28.1155939,21.1147877 28.0885098,20.8628747 Z M33.6171877,20.2483952 C33.7431874,20.2307377 33.8444582,20.2531038 33.9233552,20.3154935 C34.0305138,20.7675244 34.2754478,21.2007207 34.6805309,21.4491023 C35.215871,21.6102832 35.6669002,21.4071702 36.1134806,21.1698192 L36.3815339,21.0259405 L36.5163581,20.9558706 C36.7118343,20.9476305 36.9214412,21.1194964 37.0709923,21.2336813 C37.0191793,21.1218507 36.9391047,21.0535752 36.8331237,20.9958942 C35.9676118,20.3460998 34.8712968,19.9729388 33.7938228,19.9246751 C33.6112999,19.8705256 33.3698986,20.168348 33.6171877,20.2483952 Z M26.1431689,1.64567504 C24.3556219,1.9011196 22.6952522,2.84638216 21.7096284,4.3814038 C21.03606,5.43967409 20.6356872,6.7086567 20.535594,7.95056455 C21.0242844,7.85285995 21.5306382,7.68334836 22.0369921,7.60565555 C22.7776819,7.55739183 23.4724465,7.48793916 24.1554355,7.83637966 C24.7571723,6.86875099 25.6120861,5.97881513 26.7307749,5.64332343 C26.9851294,5.55150465 27.2642128,5.54326451 27.5138571,5.44320558 C27.3101379,4.1859946 27.0181013,2.81459873 27.5833335,1.60211998 C27.1594093,1.49028942 26.583579,1.57975387 26.1431689,1.64567504 Z" id="Combined-Shape"></path>
                        <path d="M40.4576754,16.2672271 C40.4871146,17.0771158 40.3434514,17.8528667 40.1762369,18.6403894 C40.1220688,18.7616372 40.0867418,18.9028969 40.0066672,19.0100188 C39.4979582,19.0924203 39.0222211,19.1854162 38.5971193,19.4985418 C38.3462975,19.6492188 38.1873259,19.909372 37.961233,20.0800607 C37.6232713,19.4255576 37.0592166,18.990007 36.4068444,18.6733499 C36.3715174,18.5933028 36.4068444,18.5273816 36.5128254,18.4779407 C37.7480934,17.79754 39.2412486,16.9382104 40.4576754,16.2672271 Z" id="Path"></path>
                        <path d="M46.1629884,19.5114906 C46.5280342,19.5185536 46.8589306,19.8705256 47.0967992,20.1165528 C47.3664621,20.4449815 47.6879379,20.7875362 47.8739935,21.1677601 C47.4806861,22.4414514 46.9260519,23.6503986 46.251306,24.7993105 C44.9147672,27.0747682 43.1201548,29.1324506 41.1995428,30.9346885 C41.0888515,31.0241529 41.0523469,31.1383378 40.8933753,31.146578 C41.3078789,30.2095555 41.6894107,29.3243283 42.0744752,28.3720028 C42.94823,26.1071396 43.8891062,23.6033121 44.069274,21.1748231 C44.0539656,20.6403907 44.1776102,20.0918324 44.6451043,19.7751753 C45.0902247,19.4761757 45.6507467,19.5114906 46.1629884,19.5114906 Z" id="Path"></path>
                        <path d="M29.2507686,34.9994352 C29.3485067,34.9111479 29.4509551,34.8923133 29.5581137,34.9429313 C30.5166534,35.1371634 31.3268196,35.7893121 31.6400524,36.7275117 C31.7648746,37.1077356 31.9144256,37.6339279 31.8402389,38.0188604 C30.9971008,38.1000847 30.4377564,38.331986 29.7842066,38.8628869 L29.6864685,38.827572 C29.257834,38.4002615 28.9163396,37.8917267 28.7349942,37.311385 C28.5183219,36.5003191 28.713798,35.6409895 29.2507686,34.9994352 Z" id="Path"></path>
                        <path d="M34.8501006,34.9558801 C35.1350718,35.0677107 35.3340807,35.4961983 35.444772,35.7681232 C35.7815562,36.9170351 35.2492958,38.0223919 34.4956528,38.8675956 C34.3484569,38.834635 34.2507189,38.7027926 34.1176538,38.6274541 C33.6277858,38.2884309 33.0319368,38.0859588 32.4396206,38.0365179 C32.2570976,37.067712 32.7799375,35.9941386 33.6089448,35.4620606 C33.9669252,35.2301593 34.4155783,34.9688289 34.8501006,34.9558801 Z" id="Path"></path>
                        <path d="M26.9839518,38.2036752 C27.8694823,38.2236869 28.6490318,38.6427573 29.3131797,39.1983786 L29.3437964,39.2960832 C28.8503958,39.9188029 28.6184151,40.5568257 28.5006583,41.3361081 C28.1721171,41.3890805 27.7599686,41.2548838 27.4361376,41.1677737 C26.4234299,40.8593568 25.6403477,39.9835469 25.4413388,38.9476427 C25.4330959,38.8299263 25.4684229,38.7475248 25.5461423,38.6992611 C25.9700665,38.389667 26.461112,38.2295728 26.9839518,38.2036752 Z" id="Path"></path>
                        <path d="M38.7702217,38.8287491 C38.8208571,39.237225 38.5606147,39.7386968 38.3427648,40.0812515 C37.7210093,40.9653015 36.7436286,41.2619468 35.7356311,41.4738363 C35.6555565,41.2748956 35.6567341,41.0441715 35.6084538,40.8334592 C35.4871644,40.2095623 35.172754,39.6645355 34.7653157,39.1842526 C35.7897992,38.0883131 37.5691032,37.8964354 38.7702217,38.8287491 Z" id="Path"></path>
                        <path d="M32.9718809,38.6368714 C34.2389432,38.9841348 35.191595,40.2201568 35.1786418,41.5385803 C35.2233894,42.5956734 34.647559,43.6480579 33.7514304,44.2036792 C32.9271334,44.7416431 31.8096221,44.8275761 30.9087832,44.4414663 C30.0397386,44.08714 29.3626375,43.332578 29.1235914,42.4238075 C28.8433304,41.4279269 29.0965073,40.3037354 29.7948047,39.5374018 C30.5708214,38.6545289 31.8484818,38.3037341 32.9718809,38.6368714 Z" id="Path"></path>
                        <path d="M28.3876119,41.8587689 C28.6254805,41.9046783 28.5230321,42.0659497 28.5724899,42.2437014 C28.6678729,42.8617125 28.9516666,43.4314597 29.3543946,43.9070339 C29.3143573,44.1024431 29.0093674,44.2531201 28.8598163,44.3778995 C27.8577067,45.0912608 26.5164577,45.0677175 25.4896191,44.4202774 C25.4118996,44.3614192 25.3812829,44.2990295 25.3977688,44.2319312 C25.5261237,43.4314597 25.952403,42.7016182 26.6836722,42.3155084 C27.2206428,41.9917884 27.7811648,41.9341073 28.3876119,41.8587689 Z" id="Path"></path>
                        <path d="M35.9122662,41.9035011 C36.821348,41.8893751 37.7104112,42.2225125 38.25798,42.9711887 C38.5311756,43.3431725 38.7808198,43.9140969 38.7643339,44.3661278 C38.3180359,44.7416431 37.6750842,44.934698 37.093366,44.9170405 C36.277312,44.9429381 35.471856,44.5144505 34.8724743,43.9882582 L34.8559884,43.8964395 C35.1751091,43.4785463 35.4341739,43.0441728 35.5790146,42.5356381 C35.6614443,42.3166856 35.5436876,41.7963792 35.9122662,41.9035011 Z" id="Path"></path>
                        <path d="M29.6758704,44.3072696 L29.783029,44.3402302 C30.3565042,44.8299304 31.0771753,45.1030324 31.8249305,45.1701307 L31.8755659,45.2913786 C31.8107997,45.9023266 31.711884,46.4861999 31.3880531,47.018278 C30.9806148,47.7457652 30.1951775,48.2013276 29.380301,48.2872606 C29.2283949,48.189556 29.151853,48.0577136 29.0823765,47.8964422 C28.8044707,47.356124 28.6855364,46.7298728 28.7868072,46.1283421 C28.8892555,45.4526501 29.2331051,44.8205131 29.6758704,44.3072696 Z" id="Path"></path>
                        <path d="M34.813596,44.7616549 C35.58608,45.7422324 35.6767527,47.1807266 34.9254649,48.1977961 C34.7382317,48.3308156 34.6416712,48.2566543 34.4414847,48.2225166 C33.910402,48.1660127 33.4040481,47.8552414 33.0554882,47.4573601 C32.5385362,46.8522979 32.3206863,45.9505904 32.3395273,45.1771937 C33.0354695,45.1018552 33.6937296,44.9052689 34.244831,44.4591238 C34.5062509,44.1895533 34.6581571,44.5980291 34.813596,44.7616549 Z" id="Path"></path>
                        <path d="M24.1106879,58.2884445 C25.0444987,58.6980975 25.7192447,59.6115767 25.8417117,60.6227604 C25.9841973,61.6716134 25.5331891,62.7604899 24.681808,63.3914498 C23.963492,63.9600199 23.0202607,64.1177598 22.1359078,63.9164648 C21.0136862,63.6539573 20.0527914,62.6510137 19.9161936,61.496216 C19.7772407,61.0488937 19.9161936,60.6933902 19.9574085,60.253131 C20.2364919,59.1336482 21.2280035,58.2237005 22.3714212,58.0577204 C22.9825786,58.0200512 23.5525211,57.9988622 24.1106879,58.2884445 Z M23.9352304,59.1101049 C24.1742765,59.5939192 24.4651356,60.0365328 24.629995,60.5662566 L24.7041818,60.590977 C24.9326298,59.9706117 24.524014,59.3113999 23.9352304,59.1101049 Z" id="Combined-Shape"></path>
                        <path d="M48.2896747,59.4255848 C48.8749256,60.3367096 48.8878789,61.611578 48.3238242,62.5356517 C47.7986292,63.4455993 46.7447066,64.0494843 45.6896064,63.9941576 C45.2020936,63.9953348 44.5968241,63.867024 44.2211801,63.5456582 C44.7381321,62.8982181 45.086692,62.1601364 45.0631407,61.3149328 C45.0843369,60.2931545 44.5885811,59.3949785 43.8396484,58.7263495 C44.3354042,58.2802044 45.0172156,58.0059252 45.6896064,58.0388858 C46.7282207,57.9647245 47.7479938,58.5544836 48.2896747,59.4255848 Z M47.0355657,59.1042191 C47.3323126,59.6045137 47.6102185,60.102454 47.7680125,60.6651383 L47.8669281,60.6792643 C47.9128532,60.4049851 47.9446476,60.1483634 47.8457319,59.8811472 C47.6690968,59.5527185 47.3735275,59.2654905 47.0355657,59.1042191 Z" id="Combined-Shape"></path>
                    </g>
                </g>
            </g>
        </g>
    </g>
</svg>