<?xml version="1.0" encoding="UTF-8"?>
<svg width="30px" height="30px" viewBox="0 0 30 30" version="1.1" xmlns="http://www.w3.org/2000/svg" xmlns:xlink="http://www.w3.org/1999/xlink">
    <title>instagram</title>
    <g id="home" stroke="none" stroke-width="1" fill="none" fill-rule="evenodd">
        <g id="home-5" transform="translate(-275.000000, -1678.000000)" fill-rule="nonzero">
            <g id="content5" transform="translate(0.000000, 150.000000)">
                <g id="footer" transform="translate(0.000000, 1010.000000)">
                    <g id="socials" transform="translate(195.000000, 518.000000)">
                        <g id="instagram" transform="translate(80.000000, 0.000000)">
                            <circle id="Oval" fill="#C5A559" cx="15" cy="15" r="15"></circle>
                            <path d="M19.5000085,7.68750476 L10.5000021,7.68750476 C8.93749065,7.68750476 7.68749418,8.93750123 7.68749418,10.5000127 L7.68749418,19.5000085 C7.68749418,21.0625199 8.93749065,22.3125058 10.5000021,22.3125058 L19.5000085,22.3125058 C21.0625093,22.3125058 22.3125164,21.0625199 22.3125164,19.5000085 L22.3125164,10.5000021 C22.3125164,8.93750123 21.0624988,7.68750476 19.5000085,7.68750476 L19.5000085,7.68750476 Z M20.3125115,9.37500529 L20.6250018,9.37500529 L20.6250018,11.8750053 L18.1250018,11.8750053 L18.1250018,9.37500529 L20.3125115,9.37500529 L20.3125115,9.37500529 Z M12.9375125,13.5000148 C13.3750046,12.875006 14.1875076,12.4375019 15.0000106,12.4375019 C15.8125136,12.4375019 16.6250166,12.875006 17.0625101,13.5000148 C17.3750039,13.9375019 17.5625086,14.4375019 17.5625086,15.0000106 C17.5625086,16.4375019 16.3750067,17.5625086 15.0000106,17.5625086 C13.6250039,17.5625086 12.4375125,16.4375019 12.4375125,15.0000106 C12.4375125,14.4375019 12.6250067,13.9375019 12.9375125,13.5000148 Z M20.8750152,19.5000148 C20.8750152,20.2500169 20.2500063,20.8750152 19.5000085,20.8750152 L10.5000021,20.8750152 C9.75000423,20.8750152 9.12499541,20.2500169 9.12499541,19.5000148 L9.12499541,13.5000148 L11.3124945,13.5000148 C11.1249954,13.9375083 11.0000007,14.5000148 11.0000007,15.0000148 C11.0000007,17.1875097 12.8125009,19.0000148 15,19.0000148 C17.1874991,19.0000148 18.9999993,17.1875097 18.9999993,15.0000148 C18.9999993,14.5000148 18.8749891,13.9374977 18.6875055,13.5000148 L20.8750152,13.5000148 L20.8750152,19.5000148 L20.8750152,19.5000148 Z" id="Shape" fill="#002C5A"></path>
                        </g>
                    </g>
                </g>
            </g>
        </g>
    </g>
</svg>