<?xml version="1.0" encoding="UTF-8"?>
<svg width="30px" height="30px" viewBox="0 0 30 30" version="1.1" xmlns="http://www.w3.org/2000/svg" xmlns:xlink="http://www.w3.org/1999/xlink">
    <title>twitter</title>
    <g id="home" stroke="none" stroke-width="1" fill="none" fill-rule="evenodd">
        <g id="home-5" transform="translate(-355.000000, -1678.000000)">
            <g id="content5" transform="translate(0.000000, 150.000000)">
                <g id="footer" transform="translate(0.000000, 1010.000000)">
                    <g id="socials" transform="translate(195.000000, 518.000000)">
                        <g id="twitter" transform="translate(160.000000, 0.000000)">
                            <circle id="Oval" fill="#C5A559" cx="15" cy="15" r="15"></circle>
                            <g id="vimeo" transform="translate(7.200000, 8.400000)" fill="#002C5A" fill-rule="nonzero">
                                <path d="M14.992656,3.05357017 C14.9254335,4.53896989 13.9057429,6.57281779 11.9336362,9.15514026 C9.89426805,11.851709 8.16864389,13.2 6.75678958,13.2 C5.88276727,13.2 5.1432418,12.3773211 4.53813549,10.7319502 L3.32797466,6.20719007 C2.87975975,4.56183235 2.39792711,3.73914029 1.88248967,3.73914029 C1.77043918,3.73914029 1.37824952,3.97909049 0.705920681,4.45899089 L0,3.53347057 C0.733293713,2.87643564 1.46165609,2.21369985 2.18502341,1.54532119 C3.17108326,0.676930614 3.91063462,0.219892668 4.40366455,0.174180954 C5.56901037,0.0599214673 6.28614127,0.871182301 6.55507022,2.60795025 C6.84640667,4.48184015 7.04810015,5.64731067 7.16013769,6.10436182 C7.49630211,7.65832251 7.86607132,8.43530286 8.26945826,8.43530286 C8.58320223,8.43530286 9.05383759,7.9325532 9.68132552,6.92705388 C10.3088264,5.92154136 10.6449779,5.15599224 10.6897929,4.63039332 C10.7794359,3.76200275 10.4432844,3.32781406 9.68132552,3.32781406 C9.32275359,3.32781406 8.95297144,3.40780626 8.57200495,3.56776426 C9.31155631,1.12256373 10.7234236,-0.0657560477 12.8076067,0.00280492413 C14.353932,0.0485166387 15.082286,1.06544719 14.9926301,3.05359657 L14.992656,3.05357017 Z" id="Path"></path>
                            </g>
                        </g>
                    </g>
                </g>
            </g>
        </g>
    </g>
</svg>