<?xml version="1.0" encoding="UTF-8"?>
<svg width="30px" height="30px" viewBox="0 0 30 30" version="1.1" xmlns="http://www.w3.org/2000/svg" xmlns:xlink="http://www.w3.org/1999/xlink">
    <title>twitter</title>
    <g id="home" stroke="none" stroke-width="1" fill="none" fill-rule="evenodd">
        <g id="home-5" transform="translate(-315.000000, -1678.000000)">
            <g id="content5" transform="translate(0.000000, 150.000000)">
                <g id="footer" transform="translate(0.000000, 1010.000000)">
                    <g id="socials" transform="translate(195.000000, 518.000000)">
                        <g id="twitter" transform="translate(120.000000, 0.000000)">
                            <circle id="Oval" fill="#C5A559" cx="15" cy="15" r="15"></circle>
                            <path d="M22.8,10.4208317 C22.2483708,10.6614206 21.6557844,10.8239858 21.0328355,10.8974628 C21.6683493,10.5229238 22.1558942,9.9285578 22.3857774,9.22106702 C21.7912207,9.56832634 21.1325797,9.82061554 20.4316894,9.95586926 C19.8701439,9.36805291 19.0708016,9 18.185572,9 C16.4864648,9 15.1084253,10.3564479 15.1084253,12.0302366 C15.1085093,12.2622032 15.1350983,12.4934247 15.1876909,12.7195409 C12.62913,12.5927127 10.3625339,11.3864619 8.84443913,9.55401882 C8.58022042,10.0027025 8.42824621,10.5229238 8.42824621,11.0769426 C8.42824621,12.1277502 8.97196181,13.0557039 9.79704773,13.5986901 C9.30837545,13.5833683 8.83048667,13.4533905 8.40314866,13.2195727 L8.40314866,13.2585845 C8.40314866,14.7262177 9.46344738,15.9506868 10.8718817,16.2290156 C10.6075973,16.2992017 10.3350328,16.3346214 10.0612987,16.3343508 C9.86691278,16.3345046 9.67294338,16.3166528 9.48195561,16.2810314 C9.87369699,17.4840074 11.0099667,18.3605812 12.3569653,18.3839819 C11.3032559,19.1968078 9.97608982,19.6812603 8.53461201,19.6812603 C8.28622057,19.6812603 8.0411238,19.6669528 7.8,19.6389737 C9.1622122,20.4993323 10.7794052,21 12.5168208,21 C18.1783043,21 21.2733133,16.3843953 21.2733133,12.3813748 C21.2733133,12.2513354 21.2699863,12.1199606 21.264043,11.9899211 C21.8652213,11.562031 22.3871017,11.0294735 22.7986434,10.4227712 L22.8,10.4208317 Z" id="Path" fill="#002C5A" fill-rule="nonzero"></path>
                        </g>
                    </g>
                </g>
            </g>
        </g>
    </g>
</svg>